<svg fill="none" height="688" viewBox="0 0 1164 688" width="1164" xmlns="http://www.w3.org/2000/svg" xmlns:xlink="http://www.w3.org/1999/xlink"><filter id="a" color-interpolation-filters="sRGB" filterUnits="userSpaceOnUse" height="812.595" width="1072.5" x="-94.8289" y="25.3887"><feFlood flood-opacity="0" result="BackgroundImageFix"/><feColorMatrix in="SourceAlpha" type="matrix" values="0 0 0 0 0 0 0 0 0 0 0 0 0 0 0 0 0 0 127 0"/><feMorphology in="SourceAlpha" operator="erode" radius="10" result="effect1_dropShadow"/><feOffset dy="25"/><feGaussianBlur stdDeviation="25"/><feColorMatrix type="matrix" values="0 0 0 0 0.656753 0 0 0 0 0.799473 0 0 0 0 0.870833 0 0 0 1 0"/><feBlend in2="BackgroundImageFix" mode="normal" result="effect1_dropShadow"/><feBlend in="SourceGraphic" in2="effect1_dropShadow" mode="normal" result="shape"/></filter><filter id="b" color-interpolation-filters="sRGB" filterUnits="userSpaceOnUse" height="812.579" width="1072.52" x="353.115" y="40.7119"><feFlood flood-opacity="0" result="BackgroundImageFix"/><feColorMatrix in="SourceAlpha" type="matrix" values="0 0 0 0 0 0 0 0 0 0 0 0 0 0 0 0 0 0 127 0"/><feMorphology in="SourceAlpha" operator="erode" radius="10" result="effect1_dropShadow"/><feOffset dy="25"/><feGaussianBlur stdDeviation="25"/><feColorMatrix type="matrix" values="0 0 0 0 0.654902 0 0 0 0 0.8 0 0 0 0 0.870588 0 0 0 0.35 0"/><feBlend in2="BackgroundImageFix" mode="normal" result="effect1_dropShadow"/><feBlend in="SourceGraphic" in2="effect1_dropShadow" mode="normal" result="shape"/></filter><mask id="c" height="688" maskUnits="userSpaceOnUse" width="1164" x="0" y="0"><path d="m0 0h1164v688h-1164z" fill="#ead9cc"/></mask><path d="m0 0h1164v688h-1164z" fill="#ddedf5"/><g mask="url(#c)"><g filter="url(#a)"><rect fill="#fff" height="712.518" rx="24" transform="matrix(.902601 -.430478 .70714 .707073 -65.9426 276.611)" width="566.008"/></g><path clip-rule="evenodd" d="m309.702 344.567c-1.562-1.562-1.212-3.6.782-4.551l220.939-105.372c1.994-.951 4.877-.456 6.439 1.106l13.772 13.77c1.562 1.563 1.212 3.6-.782 4.551l-220.939 105.372c-1.994.951-4.877.456-6.439-1.106z" fill="#ead6c7" fill-rule="evenodd"/><path clip-rule="evenodd" d="m340.669 375.53c-.781-.781-.606-1.799.391-2.275l125.349-59.783c.997-.475 2.439-.228 3.22.553l10.124 10.123c.781.781.606 1.8-.391 2.276l-125.35 59.782c-.997.476-2.438.228-3.219-.553z" fill="#fbf2eb" fill-rule="evenodd"/><path clip-rule="evenodd" d="m358.802 393.662c-.781-.781-.606-1.799.391-2.275l216.283-103.152c.997-.475 2.438-.228 3.22.553l10.123 10.123c.781.781.606 1.8-.391 2.276l-216.282 103.151c-.997.476-2.439.228-3.22-.553z" fill="#fbf2eb" fill-rule="evenodd"/><path clip-rule="evenodd" d="m376.936 411.794c-.781-.781-.606-1.8.391-2.275l169.989-81.073c.997-.476 2.439-.228 3.22.553l10.124 10.123c.781.781.606 1.8-.391 2.275l-169.99 81.073c-.997.476-2.438.228-3.219-.553z" fill="#fbf2eb" fill-rule="evenodd"/><rect fill="#fbf2eb" height="124.553" rx="8" transform="matrix(.902601 -.430478 .70714 .707073 147.216 414.058)" width="139.212"/><path d="m255.077 404.701-33.068 15.771-.001.001c-3.65 1.744-4.291 5.472-1.433 8.334l20.724 20.722h-.002c2.863 2.858 8.139 3.764 11.793 2.026l33.068-15.771h-.001c3.648-1.744 4.289-5.472 1.433-8.334l-20.723-20.722c-2.865-2.858-8.142-3.764-11.796-2.026zm-3.086 9.123-.001.001c2.737-1.307 6.7-.626 8.846 1.519 2.145 2.145 1.664 4.945-1.075 6.251-2.739 1.307-6.701.626-8.846-1.519h-.001c-2.143-2.146-1.662-4.943 1.073-6.251zm-1.487 35.14-.002.001c-1.827.87-4.466.417-5.898-1.014l-5.474-5.474 2.976-11.498-.001-.001c.599-2.3 3.644-3.653 6.954-3.089l11.958 2.045-2.624 15.265zm33.784-19.938c1.431 1.43 1.11 3.296-.716 4.167l-20.499 9.777 2.718-15.812-.001-.001c.612-2.097 3.299-3.387 6.357-3.051l8.08.859z" fill="#e9d5c6"/><path clip-rule="evenodd" d="m417.208 452.062c-1.562-1.562-1.212-3.6.782-4.551l220.939-105.372c1.994-.951 4.876-.456 6.439 1.106l13.771 13.771c1.562 1.562 1.212 3.599-.782 4.55l-220.939 105.372c-1.994.951-4.877.456-6.439-1.106z" fill="#ead6c7" fill-rule="evenodd"/><path clip-rule="evenodd" d="m448.175 483.025c-.782-.781-.607-1.799.39-2.275l125.35-59.783c.997-.475 2.438-.227 3.219.554l10.124 10.123c.781.781.606 1.799-.391 2.275l-125.349 59.783c-.997.475-2.438.227-3.22-.554z" fill="#fbf2eb" fill-rule="evenodd"/><path clip-rule="evenodd" d="m466.308 501.157c-.781-.781-.606-1.799.391-2.275l216.283-103.152c.997-.475 2.438-.227 3.219.554l10.124 10.123c.781.781.606 1.799-.391 2.275l-216.283 103.151c-.997.476-2.438.228-3.219-.553z" fill="#fbf2eb" fill-rule="evenodd"/><path clip-rule="evenodd" d="m484.441 519.289c-.781-.781-.606-1.799.391-2.275l169.99-81.073c.997-.476 2.438-.228 3.219.553l10.124 10.123c.781.781.606 1.8-.391 2.275l-169.989 81.073c-.997.476-2.439.228-3.22-.553z" fill="#fbf2eb" fill-rule="evenodd"/><rect fill="#fbf2eb" height="124.553" rx="8" transform="matrix(.902601 -.430478 .70714 .707073 254.722 521.553)" width="139.212"/><path d="m362.583 512.196-33.068 15.771-.002.001c-3.649 1.744-4.29 5.473-1.432 8.335l20.723 20.721h-.002c2.863 2.858 8.14 3.764 11.794 2.026l33.068-15.771-.001.001c3.647-1.745 4.288-5.473 1.433-8.335l-20.724-20.721c-2.865-2.859-8.141-3.765-11.795-2.027zm-3.087 9.123-.001.001c2.738-1.307 6.7-.626 8.846 1.52 2.145 2.145 1.664 4.944-1.074 6.25-2.74 1.307-6.701.626-8.846-1.519h-.001c-2.143-2.146-1.662-4.943 1.073-6.251zm-1.487 35.14-.001.001c-1.828.87-4.467.417-5.898-1.014l-5.475-5.474 2.977-11.498-.001-.001c.598-2.3 3.644-3.653 6.953-3.089l11.959 2.045-2.625 15.265zm33.785-19.938c1.43 1.43 1.109 3.296-.717 4.167l-20.499 9.777 2.718-15.812v-.001c.612-2.097 3.299-3.387 6.356-3.051l8.08.859z" fill="#e9d5c6"/><path clip-rule="evenodd" d="m524.713 559.557c-1.562-1.562-1.212-3.599.782-4.55l220.939-105.373c1.994-.951 4.877-.456 6.439 1.106l13.772 13.771c1.562 1.562 1.212 3.599-.782 4.55l-220.939 105.372c-1.994.951-4.877.456-6.439-1.106z" fill="#ead6c7" fill-rule="evenodd"/><path clip-rule="evenodd" d="m555.68 590.521c-.781-.781-.606-1.8.391-2.276l125.349-59.782c.997-.476 2.439-.228 3.22.553l10.124 10.123c.781.781.606 1.799-.391 2.275l-125.35 59.783c-.997.475-2.438.228-3.219-.553z" fill="#fbf2eb" fill-rule="evenodd"/><path clip-rule="evenodd" d="m573.813 608.652c-.781-.781-.606-1.799.391-2.275l216.283-103.151c.997-.476 2.438-.228 3.219.553l10.124 10.123c.782.781.606 1.799-.391 2.275l-216.282 103.152c-.997.475-2.439.227-3.22-.554z" fill="#fbf2eb" fill-rule="evenodd"/><path clip-rule="evenodd" d="m591.947 626.784c-.781-.781-.606-1.799.391-2.275l169.989-81.073c.997-.475 2.439-.228 3.22.553l10.124 10.123c.781.781.606 1.8-.391 2.275l-169.99 81.073c-.997.476-2.438.228-3.219-.553z" fill="#fbf2eb" fill-rule="evenodd"/><rect fill="#fbf2eb" height="124.553" rx="8" transform="matrix(.902601 -.430478 .70714 .707073 362.227 629.048)" width="139.212"/><path d="m470.088 619.691-33.068 15.772h-.001c-3.65 1.744-4.291 5.473-1.433 8.335l20.723 20.721h-.001c2.863 2.858 8.139 3.764 11.793 2.026l33.068-15.771-.001.001c3.648-1.745 4.289-5.473 1.433-8.335l-20.723-20.721c-2.865-2.859-8.142-3.765-11.796-2.027zm-3.086 9.124h-.001c2.737-1.307 6.7-.626 8.846 1.52 2.145 2.145 1.664 4.945-1.075 6.251s-6.701.625-8.846-1.52l-.001.001c-2.143-2.146-1.662-4.944 1.073-6.252zm-1.487 35.14h-.002c-1.827.871-4.466.417-5.898-1.014l-5.474-5.474 2.976-11.498-.001-.001c.599-2.299 3.644-3.653 6.954-3.089l11.958 2.045-2.624 15.265zm33.784-19.939c1.431 1.43 1.11 3.297-.716 4.167l-20.499 9.777 2.718-15.812-.001-.001c.612-2.097 3.299-3.387 6.357-3.051l8.08.859z" fill="#e9d5c6"/><path clip-rule="evenodd" d="m135.621 253.52c-1.562-1.562-1.212-3.6.782-4.551l201.099-95.91c1.994-.951 4.877-.455 6.439 1.107l13.772 13.77c1.562 1.562 1.212 3.599-.782 4.55l-201.099 95.91c-1.994.951-4.877.456-6.439-1.106z" fill="#ead6c7" fill-rule="evenodd"/><path clip-rule="evenodd" d="m173.148 308.135c-.781-.781-.606-1.8.391-2.275l226.203-107.883c.997-.476 2.439-.228 3.22.553l12.714 12.713c.781.781.606 1.8-.391 2.275l-226.203 107.883c-.997.476-2.438.228-3.219-.553z" fill="#fbf2eb" fill-rule="evenodd"/><path clip-rule="evenodd" d="m121.369 300.312c-.781-.781-.606-1.8.391-2.275l285.723-136.27c.997-.476 2.438-.228 3.219.553l12.715 12.713c.781.781.606 1.8-.391 2.275l-285.723 136.27c-.997.475-2.438.228-3.22-.553z" fill="#fbf2eb" fill-rule="evenodd"/><g filter="url(#b)"><rect fill="#fff" height="712.518" rx="24" transform="matrix(.902607 -.430465 .707153 .707061 382.002 291.928)" width="566.008"/></g><g clip-rule="evenodd" fill-rule="evenodd"><path d="m620.012 454.217c-1.562-1.562-1.212-3.599.782-4.55l225.901-107.735c1.994-.951 4.876-.456 6.439 1.106l11.181 11.18c1.562 1.562 1.212 3.599-.782 4.55l-225.9 107.735c-1.994.951-4.877.456-6.44-1.106z" fill="#ead6c7"/><path d="m850.57 684.744c-1.562-1.562-1.212-3.599.782-4.55l330.058-157.41c2-.951 4.88-.456 6.44 1.106l11.18 11.18c1.57 1.562 1.22 3.599-.78 4.55l-330.06 157.41c-1.994.951-4.876.456-6.439-1.106z" fill="#ead6c7"/><path d="m645.799 479.999c-.782-.781-.607-1.799.39-2.275l259.272-123.65c.997-.475 2.438-.228 3.219.553l7.534 7.533c.781.781.606 1.799-.391 2.275l-259.271 123.65c-.997.475-2.439.228-3.22-.553z" fill="#fbf2eb"/><path d="m876.356 710.527c-.781-.781-.606-1.799.391-2.275l290.683-138.631c1-.476 2.44-.228 3.22.553l7.54 7.533c.78.781.6 1.799-.4 2.275l-290.681 138.631c-.997.476-2.438.228-3.219-.553z" fill="#fbf2eb"/><path d="m661.342 495.541c-.781-.781-.606-1.799.391-2.275l346.897-165.44c1-.476 2.44-.228 3.22.553l7.53 7.532c.79.781.61 1.8-.39 2.275l-346.895 165.441c-.997.475-2.439.228-3.22-.553z" fill="#fbf2eb"/><path d="m891.9 726.068c-.781-.781-.606-1.799.391-2.275l208.019-99.206c1-.475 2.44-.228 3.22.553l7.53 7.533c.78.781.61 1.799-.39 2.275l-208.017 99.206c-.997.476-2.439.228-3.22-.553z" fill="#fbf2eb"/></g><rect fill="#fbf2eb" height="194.157" rx="8" transform="matrix(.902607 -.430465 .707153 .707061 465.637 299.861)" width="452.44"/><rect fill="#fbf2eb" height="194.157" rx="8" transform="matrix(.902607 -.430465 .707153 .707061 696.195 530.39)" width="452.44"/><path d="m740.681 233.73-51.965 24.782-.002.001c-5.735 2.741-6.714 8.627-2.189 13.159l32.812 32.808-.003-.001c4.534 4.526 12.853 5.978 18.595 3.247l51.964-24.783-.001.001c5.732-2.741 6.711-8.628 2.19-13.159l-32.813-32.808c-4.536-4.526-12.855-5.978-18.597-3.247zm-4.788 14.397-.002.001c4.302-2.053 10.549-.963 13.947 2.434 3.397 3.397 2.661 7.817-1.642 9.869-4.305 2.053-10.551.962-13.947-2.434l-.002.001c-3.393-3.398-2.658-7.814 1.64-9.87zm-2.06 55.497h-.001c-2.873 1.368-7.033.642-9.3-1.624l-8.668-8.667 4.596-18.149-.001-.001c.924-3.63 5.71-5.756 10.928-4.852l18.854 3.276-4.01 24.1zm53.06-31.362c2.265 2.264 1.774 5.211-1.095 6.579l-32.213 15.363 4.154-24.964-.001-.002c.947-3.309 5.17-5.337 9.989-4.794l12.735 1.388z" fill="#e9d5c6"/><path d="m971.239 464.257-51.965 24.783h-.002c-5.735 2.741-6.714 8.628-2.189 13.159l32.812 32.808h-.003c4.534 4.525 12.852 5.977 18.595 3.246l51.963-24.782c5.73-2.741 6.71-8.627 2.19-13.158l-32.813-32.809c-4.536-4.526-12.855-5.977-18.598-3.246zm-4.788 14.398-.002.001c4.302-2.054 10.549-.964 13.947 2.434 3.397 3.396 2.661 7.816-1.642 9.869-4.305 2.053-10.551.962-13.947-2.435l-.002.001c-3.393-3.397-2.658-7.814 1.639-9.869zm-2.06 55.496-.001.001c-2.873 1.368-7.034.642-9.3-1.624l-8.668-8.668 4.596-18.148-.002-.002c.924-3.63 5.711-5.755 10.929-4.852l18.854 3.276-4.01 24.101zm53.059-31.362c2.27 2.265 1.78 5.211-1.09 6.58l-32.217 15.362 4.154-24.964-.001-.001c.947-3.31 5.17-5.337 9.989-4.794l12.735 1.388z" fill="#e9d5c6"/></g></svg>