<svg fill="none" height="688" viewBox="0 0 1164 688" width="1164" xmlns="http://www.w3.org/2000/svg" xmlns:xlink="http://www.w3.org/1999/xlink"><filter id="a" color-interpolation-filters="sRGB" filterUnits="userSpaceOnUse" height="1250.2" width="1890.64" x="88.3438" y="-258.505"><feFlood flood-opacity="0" result="BackgroundImageFix"/><feColorMatrix in="SourceAlpha" type="matrix" values="0 0 0 0 0 0 0 0 0 0 0 0 0 0 0 0 0 0 127 0"/><feMorphology in="SourceAlpha" operator="erode" radius="10" result="effect1_dropShadow"/><feOffset dy="25"/><feGaussianBlur stdDeviation="25"/><feColorMatrix type="matrix" values="0 0 0 0 0.8875 0 0 0 0 0.812701 0 0 0 0 0.558385 0 0 0 1 0"/><feBlend in2="BackgroundImageFix" mode="normal" result="effect1_dropShadow"/><feBlend in="SourceGraphic" in2="effect1_dropShadow" mode="normal" result="shape"/></filter><mask id="b" height="688" maskUnits="userSpaceOnUse" width="1164" x="0" y="0"><path d="m0 0h1164v688h-1164z" fill="#ead9cc"/></mask><path d="m0 0h1164v688h-1164z" fill="#f3e9c7"/><g mask="url(#b)"><g filter="url(#a)"><rect fill="#fff" height="840.735" rx="24" transform="matrix(.902601 -.430478 .70714 .707073 117.23 339.669)" width="1371.98"/></g><rect fill="#fbf2eb" height="529.352" rx="8" transform="matrix(.902601 -.430478 .70714 .707073 349.818 496.542)" width="489.075"/><rect fill="#fbf2eb" height="404.798" rx="8" transform="matrix(.902601 -.430478 .70714 .707073 701.688 118.31)" width="710.716"/><rect fill="#fff" height="197.82" rx="8" transform="matrix(.902601 -.430478 .70714 .707073 600.623 688.723)" width="402.983"/><rect fill="#fff" height="153.86" rx="8" transform="matrix(.902601 -.430478 .70714 .707073 895.501 253.505)" width="402.983"/><rect fill="#fbf2eb" height="144.702" rx="8" transform="matrix(.902601 -.430478 .70714 .707073 207.341 354.078)" width="489.075"/><path clip-rule="evenodd" d="m541.028 577.858c-1.562-1.562-1.212-3.6.782-4.551l91.979-43.867c1.994-.951 4.877-.456 6.439 1.106l7.295 7.295c1.562 1.562 1.212 3.599-.782 4.55l-91.979 43.868c-1.994.951-4.877.455-6.439-1.107z" fill="#ead6c7" fill-rule="evenodd"/><path clip-rule="evenodd" d="m566.933 603.76c-1.562-1.562-1.212-3.599.782-4.55l91.979-43.868c1.994-.951 4.877-.456 6.439 1.106l7.295 7.295c1.563 1.562 1.213 3.599-.781 4.55l-91.98 43.868c-1.994.951-4.876.456-6.439-1.106z" fill="#ead6c7" fill-rule="evenodd"/><rect fill="#ead6c7" height="18.3167" rx="5" transform="matrix(.902601 -.430478 .70714 .707073 505.133 590.8)" width="18.3174"/><rect fill="#ead6c7" height="18.3167" rx="5" transform="matrix(.902601 -.430478 .70714 .707073 531.038 616.702)" width="18.3174"/><g clip-rule="evenodd" fill-rule="evenodd"><path d="m423.77 509.445c-1.562-1.563-1.212-3.6.782-4.551l247.393-117.989c1.994-.951 4.877-.455 6.439 1.107l13.771 13.77c1.562 1.562 1.212 3.599-.782 4.55l-247.392 117.989c-1.994.951-4.877.456-6.439-1.106z" fill="#ead6c7"/><path d="m774.345 129.917c-1.562-1.562-1.212-3.599.782-4.55l463.983-221.2857c1.99-.9509 4.87-.4556 6.43 1.1064l13.78 13.7703c1.56 1.562 1.21 3.5992-.79 4.5502l-463.975 221.2858c-1.994.951-4.877.455-6.439-1.107z" fill="#ead6c7"/><path d="m378.482 322.542c-1.562-1.562-1.212-3.599.782-4.55l247.392-117.989c1.994-.951 4.877-.456 6.439 1.106l13.772 13.771c1.562 1.562 1.212 3.599-.782 4.55l-247.393 117.989c-1.994.951-4.876.455-6.439-1.107z" fill="#ead6c7"/><path d="m454.737 540.409c-.781-.781-.606-1.799.391-2.275l140.23-66.88c.997-.475 2.438-.227 3.219.554l10.124 10.123c.781.781.606 1.799-.391 2.275l-140.23 66.879c-.997.476-2.438.228-3.219-.553z" fill="#fff"/><path d="m805.311 160.881c-.781-.781-.606-1.8.391-2.275l338.628-161.50277c1-.47549 2.44-.22782 3.22.55319l10.13 10.12295c.78.78101.6 1.7996-.4 2.27513l-338.625 161.5025c-.997.476-2.439.228-3.22-.553z" fill="#fff"/><path d="m831.217 186.784c-.782-.781-.607-1.799.39-2.275l160.07-76.342c.997-.475 2.438-.228 3.22.553l10.123 10.123c.78.781.61 1.8-.39 2.275l-160.07 76.342c-.997.476-2.438.228-3.22-.553z" fill="#fff"/><path d="m404.268 348.325c-.781-.781-.606-1.799.391-2.275l140.229-66.88c.997-.475 2.439-.227 3.22.554l10.124 10.123c.781.781.606 1.799-.391 2.275l-140.23 66.879c-.997.476-2.438.228-3.219-.553z" fill="#fff"/><path d="m478.051 563.721c-.781-.781-.606-1.8.391-2.275l189.83-90.536c.997-.475 2.438-.228 3.219.553l10.124 10.123c.781.781.606 1.8-.391 2.275l-189.829 90.536c-.997.475-2.439.228-3.22-.553z" fill="#fff"/><path d="m956.443 708.394c-.997.475-2.438.228-3.22-.553l-77.476-77.47c-.781-.781-.606-1.799.391-2.275l12.35-5.89c.997-.475 2.438-.228 3.219.553l77.477 77.47c.781.781.606 1.799-.391 2.275z" fill="#f7e9df"/><path d="m879.834 744.931c-.997.476-2.438.228-3.219-.553l-59.344-59.338c-.781-.781-.606-1.799.391-2.275l12.35-5.89c.997-.475 2.439-.228 3.22.553l59.343 59.338c.781.781.606 1.799-.391 2.275z" fill="#f7e9df"/><path d="m981.98 696.214c-.997.476-2.438.228-3.219-.553l-48.982-48.977c-.781-.781-.606-1.799.391-2.275l12.35-5.89c.997-.475 2.439-.228 3.22.553l48.981 48.977c.781.781.606 1.8-.391 2.275z" fill="#f7e9df"/><path d="m905.371 732.752c-.997.476-2.439.228-3.22-.553l-45.095-45.091c-.782-.781-.606-1.8.391-2.275l12.349-5.89c.997-.476 2.439-.228 3.22.553l45.096 45.091c.781.781.606 1.8-.391 2.275z" fill="#f7e9df"/><path d="m1007.52 684.036c-1 .475-2.44.227-3.22-.554l-71.004-70.993c-.781-.781-.606-1.8.391-2.275l12.35-5.891c.997-.475 2.439-.227 3.22.554l71.003 70.993c.78.781.6 1.8-.39 2.275z" fill="#f7e9df"/><path d="m1033.05 671.856c-.99.475-2.43.228-3.22-.553l-83.949-83.945c-.781-.781-.606-1.8.391-2.275l12.35-5.89c.997-.476 2.439-.228 3.22.553l83.948 83.945c.79.781.61 1.799-.39 2.275z" fill="#f7e9df"/><path d="m828.76 769.289c-.997.476-2.438.228-3.219-.553l-73.591-73.584c-.781-.781-.606-1.799.391-2.275l12.35-5.89c.997-.475 2.438-.228 3.219.553l73.591 73.584c.781.781.606 1.8-.391 2.275z" fill="#f7e9df"/><path d="m930.906 720.574c-.997.475-2.438.227-3.219-.554l-89.134-89.125c-.781-.781-.606-1.8.391-2.275l12.35-5.89c.997-.476 2.438-.228 3.219.553l89.134 89.125c.781.781.606 1.8-.391 2.276z" fill="#f7e9df"/><path d="m1058.59 659.677c-1 .476-2.44.228-3.22-.553l-108.562-108.552c-.781-.781-.606-1.8.391-2.275l12.35-5.891c.997-.475 2.438-.227 3.219.554l108.562 108.552c.78.781.61 1.8-.39 2.275z" fill="#f7e9df"/><path d="m1015.94 339.528c-.99.475-2.44.228-3.22-.553l-12.35-12.352c-.78-.781-.605-1.8.39-2.275l12.35-5.89c1-.476 2.44-.228 3.22.553l12.35 12.352c.79.781.61 1.799-.39 2.275z" fill="#f7e9df"/><path d="m1118.09 290.811c-1 .475-2.44.228-3.22-.553l-12.35-12.352c-.78-.781-.61-1.8.39-2.275l12.35-5.89c1-.476 2.44-.228 3.22.553l12.35 12.352c.78.781.61 1.799-.39 2.275z" fill="#f7e9df"/><path d="m1041.48 327.348c-1 .476-2.44.228-3.22-.553l-22.47-22.472c-.78-.781-.61-1.8.39-2.275l12.35-5.89c.99-.476 2.44-.228 3.22.553l22.47 22.472c.78.781.61 1.799-.39 2.275z" fill="#f7e9df"/><path d="m1143.63 278.631c-1 .476-2.44.228-3.22-.553l-27.54-27.532c-.78-.781-.6-1.799.39-2.275l12.35-5.89c1-.475 2.44-.228 3.22.553l27.54 27.532c.78.781.6 1.8-.39 2.275z" fill="#f7e9df"/><path d="m1067.02 315.169c-1 .476-2.44.228-3.22-.553l-12.36-12.352c-.78-.781-.6-1.799.4-2.275l12.35-5.89c.99-.475 2.43-.228 3.21.553l12.36 12.352c.78.781.6 1.8-.39 2.275z" fill="#f7e9df"/><path d="m1169.16 266.452c-.99.475-2.43.227-3.22-.554l-20.57-20.574c-.78-.781-.61-1.8.39-2.275l12.35-5.89c1-.476 2.44-.228 3.22.553l20.58 20.574c.78.781.6 1.8-.4 2.275z" fill="#f7e9df"/><path d="m1092.55 302.99c-.99.475-2.44.227-3.22-.554l-34.49-34.489c-.78-.781-.61-1.799.39-2.275l12.35-5.89c1-.476 2.44-.228 3.22.553l34.49 34.489c.78.781.61 1.8-.39 2.276z" fill="#f7e9df"/><path d="m1194.7 254.274c-1 .475-2.44.228-3.22-.553l-42.08-42.08c-.79-.781-.61-1.799.39-2.275l12.35-5.89c.99-.475 2.44-.228 3.22.553l42.08 42.08c.78.781.61 1.799-.39 2.275z" fill="#f7e9df"/></g><ellipse fill="#e9d5c6" rx="37.5507" ry="37.5492" transform="matrix(.902601 -.430478 .70714 .707073 336.678 369.865)"/><rect fill="#fbf2eb" height="56.7817" rx="8" transform="matrix(.902601 -.430478 .70714 .707073 1126.53 543.109)" width="710.716"/><ellipse fill="#ead6c7" rx="12.8222" ry="12.8217" transform="matrix(.902601 -.430478 .70714 .707073 1178.66 548.849)"/><rect fill="#fbf2eb" height="56.7817" rx="8" transform="matrix(.902601 -.430478 .70714 .707073 1074.72 491.305)" width="710.716"/><path clip-rule="evenodd" d="m1161.47 473.059c-.78-.781-.6-1.8.39-2.275l74.1-35.339c1-.476 2.44-.228 3.22.553l10.12 10.123c.79.781.61 1.8-.39 2.275l-74.09 35.339c-1 .475-2.44.228-3.22-.553z" fill="#ead6c7" fill-rule="evenodd"/><ellipse fill="#ead6c7" rx="12.8222" ry="12.8217" transform="matrix(.902601 -.430478 .70714 .707073 1126.86 497.044)"/><rect fill="#fbf2eb" height="56.7817" rx="8" transform="matrix(.902601 -.430478 .70714 .707073 1022.91 439.5)" width="710.716"/><path clip-rule="evenodd" d="m1109.66 421.254c-.78-.781-.6-1.8.39-2.275l108.82-51.898c1-.475 2.44-.228 3.22.553l10.12 10.123c.78.781.61 1.8-.39 2.275l-108.81 51.898c-1 .476-2.44.228-3.22-.553z" fill="#ead6c7" fill-rule="evenodd"/><ellipse fill="#ead6c7" rx="12.8222" ry="12.8217" transform="matrix(.902601 -.430478 .70714 .707073 1075.05 445.24)"/><path d="m336.857 368.823c3.933-1.876 4.512-6.006 1.293-9.225-3.219-3.218-9.017-4.307-12.951-2.431-3.934 1.875-4.513 6.005-1.295 9.224 3.218 3.218 9.017 4.307 12.95 2.431zm1.666 1.665c-4.415 2.105-10.996 8.539-6.566 12.969l3.331 3.33 26.453-12.617-3.331-3.33c-4.429-4.429-15.473-2.457-19.887-.352z" fill="#fbf2eb"/></g></svg>