<svg fill="none" height="688" viewBox="0 0 1164 688" width="1164" xmlns="http://www.w3.org/2000/svg" xmlns:xlink="http://www.w3.org/1999/xlink"><filter id="a" color-interpolation-filters="sRGB" filterUnits="userSpaceOnUse" height="813.747" width="1074.1" x="433.445" y="-145.146"><feFlood flood-opacity="0" result="BackgroundImageFix"/><feColorMatrix in="SourceAlpha" type="matrix" values="0 0 0 0 0 0 0 0 0 0 0 0 0 0 0 0 0 0 127 0"/><feMorphology in="SourceAlpha" operator="erode" radius="10" result="effect1_dropShadow"/><feOffset dy="25"/><feGaussianBlur stdDeviation="25"/><feColorMatrix type="matrix" values="0 0 0 0 0.839216 0 0 0 0 0.721569 0 0 0 0 0.627451 0 0 0 0.35 0"/><feBlend in2="BackgroundImageFix" mode="normal" result="effect1_dropShadow"/><feBlend in="SourceGraphic" in2="effect1_dropShadow" mode="normal" result="shape"/></filter><filter id="b" color-interpolation-filters="sRGB" filterUnits="userSpaceOnUse" height="1422.61" width="2251.2" x="-1126" y="240.076"><feFlood flood-opacity="0" result="BackgroundImageFix"/><feColorMatrix in="SourceAlpha" type="matrix" values="0 0 0 0 0 0 0 0 0 0 0 0 0 0 0 0 0 0 127 0"/><feMorphology in="SourceAlpha" operator="erode" radius="10" result="effect1_dropShadow"/><feOffset dy="25"/><feGaussianBlur stdDeviation="25"/><feColorMatrix type="matrix" values="0 0 0 0 0.8375 0 0 0 0 0.722344 0 0 0 0 0.628125 0 0 0 1 0"/><feBlend in2="BackgroundImageFix" mode="normal" result="effect1_dropShadow"/><feBlend in="SourceGraphic" in2="effect1_dropShadow" mode="normal" result="shape"/></filter><mask id="c" height="688" maskUnits="userSpaceOnUse" width="1164" x="0" y="0"><path d="m0 0h1164v688h-1164z" fill="#ead9cc"/></mask><path d="m0 0h1164v688h-1164z" fill="#f2e7de"/><g mask="url(#c)"><g filter="url(#a)"><rect fill="#fff" height="713.631" rx="24" transform="matrix(.902607 -.430465 .707153 .707061 462.332 106.451)" width="566.892"/></g><g clip-rule="evenodd" fill-rule="evenodd"><path d="m838.563 174.507c-1.562-1.562-1.212-3.599.782-4.55l221.295-105.5396c2-.9509 4.88-.4556 6.44 1.1064l13.8 13.8004c1.56 1.562 1.21 3.5991-.78 4.5501l-221.296 105.5397c-1.994.951-4.877.455-6.439-1.107z" fill="#ead6c7"/><path d="m869.581 205.522c-.781-.781-.606-1.8.391-2.276l125.551-59.877c.997-.475 2.439-.228 3.22.553l10.147 10.143c.78.781.6 1.8-.39 2.275l-125.555 59.878c-.997.475-2.439.228-3.22-.553z" fill="#fbf2eb"/><path d="m887.743 223.681c-.781-.781-.606-1.8.391-2.275l216.626-103.313c1-.475 2.44-.228 3.22.553l10.15 10.143c.78.781.6 1.8-.4 2.275l-216.623 103.313c-.997.475-2.439.228-3.22-.553z" fill="#fbf2eb"/><path d="m905.905 241.841c-.781-.781-.606-1.8.391-2.275l170.264-81.2c.99-.476 2.44-.228 3.22.553l10.14 10.143c.78.781.61 1.799-.39 2.275l-170.261 81.2c-.997.476-2.439.228-3.22-.553z" fill="#fbf2eb"/></g><rect fill="#fbf2eb" height="124.748" rx="8" transform="matrix(.902607 -.430465 .707153 .707061 675.827 244.109)" width="139.43"/><path d="m783.857 234.739-33.12 15.795h-.001c-3.655 1.747-4.297 5.481-1.435 8.348l20.756 20.753h-.002c2.868 2.863 8.152 3.77 11.812 2.03l33.12-15.796-.001.001c3.654-1.747 4.296-5.481 1.435-8.348l-20.756-20.753c-2.869-2.863-8.154-3.771-11.814-2.03zm-3.091 9.137h-.001c2.742-1.309 6.71-.627 8.86 1.522 2.148 2.149 1.666 4.953-1.076 6.261-2.744 1.308-6.712.626-8.86-1.522h-.001c-2.147-2.149-1.665-4.951 1.074-6.261zm-1.489 35.194h-.001c-1.831.872-4.474.418-5.908-1.015l-5.483-5.483 2.981-11.515-.001-.001c.599-2.303 3.65-3.659 6.965-3.094l11.977 2.048-2.629 15.289zm33.837-19.969c1.433 1.432 1.112 3.301-.717 4.174l-20.532 9.791 2.723-15.836-.001-.001c.613-2.101 3.304-3.393 6.367-3.056l8.093.861z" fill="#e9d5c6"/><path clip-rule="evenodd" d="m946.238 282.168c-1.562-1.562-1.212-3.599.782-4.55l221.3-105.539c1.99-.951 4.87-.456 6.44 1.106l13.8 13.8c1.56 1.562 1.21 3.599-.78 4.55l-221.301 105.54c-1.994.951-4.877.455-6.439-1.107z" fill="#ead6c7" fill-rule="evenodd"/><path clip-rule="evenodd" d="m977.256 313.183c-.781-.781-.606-1.8.391-2.275l125.553-59.878c1-.475 2.44-.227 3.22.554l10.14 10.142c.78.781.61 1.8-.39 2.276l-125.55 59.877c-.997.475-2.438.228-3.22-.553z" fill="#fbf2eb" fill-rule="evenodd"/><path clip-rule="evenodd" d="m995.418 331.342c-.781-.781-.606-1.8.391-2.275l216.631-103.313c.99-.475 2.44-.228 3.22.553l10.14 10.143c.78.781.61 1.8-.39 2.275l-216.63 103.313c-.99.475-2.44.228-3.22-.553z" fill="#fbf2eb" fill-rule="evenodd"/><path clip-rule="evenodd" d="m1013.58 349.502c-.78-.781-.61-1.8.39-2.275l170.26-81.2c1-.476 2.44-.228 3.22.553l10.15 10.143c.78.781.6 1.8-.39 2.275l-170.27 81.2c-.99.476-2.43.228-3.22-.553z" fill="#fbf2eb" fill-rule="evenodd"/><rect fill="#fbf2eb" height="124.748" rx="8" transform="matrix(.902607 -.430465 .707153 .707061 783.502 351.771)" width="139.43"/><path d="m891.532 342.4-33.12 15.795-.001.001c-3.655 1.746-4.297 5.481-1.435 8.347l20.756 20.753h-.001c2.867 2.863 8.152 3.771 11.812 2.03l33.12-15.795h-.001c3.653-1.747 4.295-5.481 1.435-8.347l-20.757-20.754c-2.869-2.863-8.154-3.771-11.813-2.03zm-3.091 9.137h-.001c2.742-1.308 6.711-.627 8.86 1.522s1.667 4.953-1.076 6.261c-2.744 1.308-6.711.626-8.86-1.522h-.001c-2.146-2.149-1.665-4.95 1.074-6.26zm-1.489 35.194h-.001c-1.831.872-4.474.418-5.907-1.015l-5.484-5.483 2.981-11.515-.001-.001c.6-2.303 3.65-3.658 6.965-3.094l11.977 2.048-2.628 15.289zm33.838-19.969c1.432 1.432 1.111 3.301-.718 4.174l-20.531 9.791 2.722-15.836-.001-.001c.613-2.1 3.305-3.392 6.367-3.056l8.093.861z" fill="#e9d5c6"/><path clip-rule="evenodd" d="m1053.91 389.83c-1.56-1.562-1.21-3.599.79-4.55l221.29-105.539c2-.951 4.88-.456 6.44 1.106l13.8 13.8c1.57 1.562 1.22 3.6-.78 4.551l-221.3 105.539c-1.99.951-4.87.456-6.43-1.106z" fill="#ead6c7" fill-rule="evenodd"/><path clip-rule="evenodd" d="m1084.93 420.845c-.78-.781-.6-1.8.39-2.275l125.55-59.878c1-.475 2.44-.227 3.22.554l10.15 10.143c.78.781.6 1.799-.39 2.275l-125.55 59.877c-1 .475-2.44.228-3.22-.553z" fill="#fbf2eb" fill-rule="evenodd"/><path clip-rule="evenodd" d="m1103.09 439.004c-.78-.781-.6-1.8.39-2.275l216.63-103.313c1-.475 2.44-.228 3.22.553l10.15 10.143c.78.781.6 1.8-.39 2.276l-216.63 103.312c-1 .476-2.44.228-3.22-.553z" fill="#fbf2eb" fill-rule="evenodd"/><path clip-rule="evenodd" d="m1121.26 457.164c-.79-.781-.61-1.799.39-2.275l170.26-81.2c1-.476 2.44-.228 3.22.553l10.14 10.143c.78.781.61 1.8-.39 2.275l-170.26 81.2c-1 .476-2.44.228-3.22-.553z" fill="#fbf2eb" fill-rule="evenodd"/><rect fill="#fbf2eb" height="124.748" rx="8" transform="matrix(.902607 -.430465 .707153 .707061 891.177 459.433)" width="139.43"/><path d="m999.208 450.062-33.12 15.795-.001.001c-3.656 1.747-4.298 5.481-1.435 8.347l20.756 20.754-.002-.001c2.868 2.863 8.152 3.771 11.812 2.03l33.122-15.795c3.65-1.747 4.29-5.481 1.43-8.347l-20.75-20.754c-2.87-2.863-8.16-3.77-11.818-2.03zm-3.091 9.137-.001.001c2.742-1.309 6.714-.628 8.864 1.521 2.14 2.149 1.66 4.953-1.08 6.261-2.74 1.309-6.712.626-8.861-1.522l-.001.001c-2.146-2.15-1.665-4.951 1.075-6.261zm-1.49 35.194-.001.001c-1.831.871-4.474.417-5.907-1.016l-5.483-5.483 2.981-11.515-.001-.001c.599-2.303 3.649-3.658 6.964-3.094l11.98 2.048-2.63 15.289zm33.833-19.969c1.44 1.433 1.12 3.302-.71 4.174l-20.53 9.791 2.72-15.836v-.001c.61-2.1 3.3-3.392 6.36-3.056l8.1.861z" fill="#e9d5c6"/><path clip-rule="evenodd" d="m664.208 83.3204c-1.562-1.562-1.212-3.5991.782-4.5501l201.426-96.0626c1.994-.951 4.876-.4556 6.439 1.1064l13.802 13.80034c1.562 1.562 1.212 3.59915-.782 4.55011l-201.426 96.06265c-1.994.9509-4.877.4556-6.439-1.1064z" fill="#ead6c7" fill-rule="evenodd"/><path clip-rule="evenodd" d="m701.797 138.023c-.781-.781-.606-1.8.391-2.276l226.563-108.0506c.997-.4754 2.438-.2278 3.219.5532l12.739 12.7373c.781.781.606 1.7995-.391 2.275l-226.563 108.0511c-.997.475-2.438.228-3.219-.553z" fill="#fbf2eb" fill-rule="evenodd"/><path clip-rule="evenodd" d="m649.936 130.187c-.781-.781-.606-1.8.391-2.275l286.177-136.48188c.997-.47548 2.438-.22781 3.219.55319l12.739 12.73723c.781.781.606 1.79957-.391 2.27505l-286.177 136.48141c-.997.475-2.438.228-3.219-.553z" fill="#fbf2eb" fill-rule="evenodd"/><g filter="url(#b)"><rect fill="#fff" height="842.048" rx="24" transform="matrix(.902607 -.430465 .707153 .707061 -1097.12 1009.74)" width="1770.39"/></g><path clip-rule="evenodd" d="m237.492 764.418c-1.562-1.562-1.212-3.599.782-4.55l403.449-192.41c1.994-.951 4.877-.456 6.439 1.106l13.802 13.801c1.562 1.562 1.212 3.599-.782 4.55l-403.449 192.41c-1.994.951-4.876.455-6.439-1.107z" fill="#ead6c7" fill-rule="evenodd"/><path clip-rule="evenodd" d="m286.672 813.591c-.781-.781-.606-1.8.391-2.275l330.887-157.804c.997-.476 2.438-.228 3.219.553l10.144 10.143c.782.781.607 1.799-.39 2.275l-330.887 157.804c-.997.476-2.438.228-3.22-.553z" fill="#fbf2eb" fill-rule="evenodd"/><rect fill="#fbf2eb" height="289.855" rx="8" transform="matrix(.902607 -.430465 .707153 .707061 11.5293 538.484)" width="530.2"/><rect fill="#fbf2eb" height="289.855" rx="8" transform="matrix(.902607 -.430465 .707153 .707061 -511.743 788.04)" width="530.2"/><path d="m354.814 482.058-62.692 29.898-.001.001c-6.919 3.307-8.079 10.43-2.593 15.924l39.782 39.777h-.003c5.496 5.487 15.554 7.26 22.482 3.965l62.691-29.898-.002.001c6.916-3.307 8.076-10.431 2.593-15.924l-39.783-39.777c-5.499-5.488-15.557-7.261-22.485-3.967zm-5.727 17.419-.002.001c5.19-2.478 12.743-1.146 16.863 2.973 4.118 4.118 3.247 9.467-1.945 11.943-5.193 2.477-12.745 1.144-16.863-2.973l-.002.001c-4.114-4.12-3.244-9.464 1.941-11.944zm-2.263 67.173-.003.001c-3.465 1.65-8.496.763-11.243-1.984l-10.51-10.508 5.48-21.96-.002-.002c1.102-4.392 6.877-6.956 13.187-5.852l22.796 4.001-4.749 29.166zm63.987-37.86c2.746 2.745 2.166 6.311-1.296 7.962l-38.863 18.534 4.919-30.211-.002-.002c1.131-4.004 6.226-6.45 12.051-5.784l15.395 1.705z" fill="#e9d5c6"/><rect fill="#fbf2eb" height="56.8704" rx="8" transform="matrix(.902607 -.430465 .707153 .707061 -138.123 1161.61)" width="1109.94"/><rect fill="#fbf2eb" height="56.8704" rx="8" transform="matrix(.902607 -.430465 .707153 .707061 -190.015 1109.73)" width="1109.94"/><path clip-rule="evenodd" d="m491.352 807.937c-.781-.781-.606-1.8.391-2.275l264.65-126.215c.997-.476 2.438-.228 3.219.553l10.145 10.143c.781.781.606 1.799-.391 2.275l-264.65 126.215c-.997.475-2.438.228-3.219-.553z" fill="#ead6c7" fill-rule="evenodd"/></g></svg>