<svg fill="none" height="688" viewBox="0 0 1164 688" width="1164" xmlns="http://www.w3.org/2000/svg" xmlns:xlink="http://www.w3.org/1999/xlink"><filter id="a" color-interpolation-filters="sRGB" filterUnits="userSpaceOnUse" height="812.637" width="1072.47" x="-287.167" y="-293.323"><feFlood flood-opacity="0" result="BackgroundImageFix"/><feColorMatrix in="SourceAlpha" type="matrix" values="0 0 0 0 0 0 0 0 0 0 0 0 0 0 0 0 0 0 127 0"/><feMorphology in="SourceAlpha" operator="erode" radius="10" result="effect1_dropShadow"/><feOffset dy="25"/><feGaussianBlur stdDeviation="25"/><feColorMatrix type="matrix" values="0 0 0 0 0.920833 0 0 0 0 0.740503 0 0 0 0 0.78422 0 0 0 1 0"/><feBlend in2="BackgroundImageFix" mode="normal" result="effect1_dropShadow"/><feBlend in="SourceGraphic" in2="effect1_dropShadow" mode="normal" result="shape"/></filter><filter id="b" color-interpolation-filters="sRGB" filterUnits="userSpaceOnUse" height="1420.49" width="2247.78" x="-169.933" y="-7.57422"><feFlood flood-opacity="0" result="BackgroundImageFix"/><feColorMatrix in="SourceAlpha" type="matrix" values="0 0 0 0 0 0 0 0 0 0 0 0 0 0 0 0 0 0 127 0"/><feMorphology in="SourceAlpha" operator="erode" radius="10" result="effect1_dropShadow"/><feOffset dy="25"/><feGaussianBlur stdDeviation="25"/><feColorMatrix type="matrix" values="0 0 0 0 0.921569 0 0 0 0 0.741176 0 0 0 0 0.784314 0 0 0 0.35 0"/><feBlend in2="BackgroundImageFix" mode="normal" result="effect1_dropShadow"/><feBlend in="SourceGraphic" in2="effect1_dropShadow" mode="normal" result="shape"/></filter><mask id="c" height="688" maskUnits="userSpaceOnUse" width="1164" x="0" y="0"><path d="m0 0h1164v688h-1164z" fill="#ead9cc"/></mask><path d="m0 0h1164v688h-1164z" fill="#fbdbe3"/><g mask="url(#c)"><g filter="url(#a)"><rect fill="#fff" height="712.519" rx="24" transform="matrix(.902585 -.430511 .707107 .707107 -258.281 -42.082)" width="566.009"/></g><g clip-rule="evenodd" fill-rule="evenodd"><path d="m-20.2836 120.216c-1.5621-1.562-1.2121-3.599.7819-4.55l225.8957-107.74685c1.993-.95106 4.876-.45571 6.438 1.10638l11.181 11.18057c1.562 1.5621 1.212 3.5994-.782 4.5504l-225.89535 107.7465c-1.99393.951-4.87666.456-6.43876-1.106z" fill="#ead6c7"/><path d="m210.259 350.759c-1.562-1.562-1.212-3.599.782-4.55l330.053-157.428c1.994-.951 4.877-.455 6.439 1.107l11.181 11.18c1.562 1.562 1.212 3.6-.782 4.551l-330.054 157.427c-1.994.951-4.876.456-6.438-1.106z" fill="#ead6c7"/><path d="m5.50088 146.001c-.78105-.781-.60601-1.8.39096-2.275l259.26516-123.6632c.997-.4755 2.438-.2278 3.219.5532l7.533 7.533c.781.7811.606 1.7998-.391 2.2753l-259.2647 123.6627c-.997.476-2.4383.228-3.2194-.553z" fill="#fbf2eb"/><path d="m236.044 376.544c-.781-.781-.606-1.8.391-2.275l290.678-138.646c.996-.476 2.438-.228 3.219.553l7.533 7.533c.781.781.606 1.8-.391 2.275l-290.678 138.646c-.997.476-2.438.228-3.219-.553z" fill="#fbf2eb"/><path d="m21.0431 161.543c-.781-.781-.606-1.8.391-2.275l346.8899-165.45824c.997-.47553 2.439-.22785 3.22.5532l7.533 7.53305c.781.78105.606 1.79971-.391 2.27524l-346.8904 165.45775c-.997.476-2.4384.228-3.2194-.553z" fill="#fbf2eb"/><path d="m251.586 392.086c-.781-.781-.606-1.8.391-2.275l208.013-99.217c.996-.476 2.438-.228 3.219.553l7.533 7.533c.781.781.606 1.8-.391 2.275l-208.013 99.217c-.997.476-2.438.228-3.219-.553z" fill="#fbf2eb"/></g><rect fill="#fbf2eb" height="194.157" rx="8" transform="matrix(.902585 -.430511 .707107 .707107 -174.649 -34.1484)" width="452.44"/><rect fill="#fbf2eb" height="194.157" rx="8" transform="matrix(.902585 -.430511 .707107 .707107 55.894 196.395)" width="452.44"/><path d="m330.929 130.254-51.963 24.785-.002.001c-5.735 2.741-6.714 8.628-2.19 13.16l32.811 32.81h-.003c4.533 4.525 12.851 5.977 18.593 3.246l51.964-24.785h-.002c5.732-2.741 6.712-8.628 2.19-13.159l-32.81-32.811c-4.536-4.526-12.855-5.978-18.597-3.247zm-4.788 14.399-.002.001c4.302-2.054 10.549-.964 13.947 2.434 3.396 3.396 2.66 7.817-1.643 9.87-4.305 2.053-10.55.962-13.946-2.435l-.002.001c-3.393-3.398-2.658-7.815 1.64-9.87zm-2.061 55.501h-.001c-2.873 1.368-7.033.642-9.299-1.624l-8.668-8.668 4.596-18.15-.001-.001c.924-3.631 5.71-5.756 10.928-4.853l18.854 3.276-4.012 24.102zm53.059-31.366c2.264 2.265 1.774 5.212-1.095 6.58l-32.213 15.365 4.155-24.967-.001-.001c.947-3.31 5.17-5.337 9.989-4.795l12.735 1.388z" fill="#e9d5c6"/><g filter="url(#b)"><rect fill="#fff" height="840.735" rx="24" transform="matrix(.902607 -.430465 .707153 .707061 -141.047 760.899)" width="1767.63"/></g><path clip-rule="evenodd" d="m669.03 765.132c-1.562-1.562-1.212-3.599.782-4.55l326.754-155.834c1.994-.951 4.874-.455 6.444 1.107l13.77 13.77c1.56 1.562 1.21 3.599-.78 4.55l-326.759 155.833c-1.994.951-4.877.456-6.439-1.106z" fill="#ead6c7" fill-rule="evenodd"/><rect fill="#fbf2eb" height="289.403" rx="8" transform="matrix(.902607 -.430465 .707153 .707061 965.872 290.381)" width="529.374"/><rect fill="#fbf2eb" height="289.403" rx="8" transform="matrix(.902607 -.430465 .707153 .707061 443.415 539.547)" width="529.373"/><rect fill="#fbf2eb" height="144.702" rx="8" transform="matrix(.902607 -.430465 .707153 .707061 -50.9348 775.309)" width="489.075"/><path d="m786.164 483.208-62.594 29.852-.002.001c-6.908 3.302-8.066 10.414-2.588 15.899l39.72 39.716-.003-.001c5.488 5.478 15.53 7.249 22.447 3.959l62.594-29.851-.002.001c6.904-3.302 8.062-10.415 2.588-15.9l-39.72-39.715c-5.492-5.479-15.534-7.25-22.451-3.96zm-5.718 17.392-.002.001c5.182-2.473 12.723-1.144 16.837 2.969 4.111 4.111 3.242 9.452-1.942 11.924-5.185 2.473-12.725 1.143-16.837-2.968h-.002c-4.107-4.113-3.239-9.449 1.938-11.925zm-2.26 67.069-.002.001c-3.46 1.647-8.483.762-11.226-1.981l-10.493-10.492 5.471-21.926-.001-.001c1.1-4.386 6.866-6.946 13.165-5.844l22.761 3.996-4.742 29.12zm63.888-37.802c2.742 2.742 2.162 6.302-1.294 7.95l-38.802 18.505 4.911-30.163-.002-.002c1.129-3.998 6.216-6.44 12.032-5.775l15.371 1.702z" fill="#e9d5c6"/><path clip-rule="evenodd" d="m120.208 743.774c-1.562-1.562-1.212-3.6.782-4.551l247.394-117.985c1.994-.951 4.877-.456 6.439 1.106l13.772 13.77c1.562 1.562 1.212 3.599-.782 4.55l-247.394 117.986c-1.994.951-4.877.456-6.439-1.106z" fill="#ead6c7" fill-rule="evenodd"/><rect fill="#fbf2eb" height="56.7817" rx="8" transform="matrix(.902607 -.430465 .707153 .707061 920.074 1016.14)" width="1108.2"/><rect fill="#fbf2eb" height="56.7817" rx="8" transform="matrix(.902607 -.430465 .707153 .707061 868.263 964.34)" width="1108.2"/><rect fill="#fbf2eb" height="56.7816" rx="8" transform="matrix(.902607 -.430465 .707153 .707061 816.453 912.536)" width="1108.2"/><path clip-rule="evenodd" d="m1126.41 787.843c-.78-.781-.61-1.8.39-2.275l254.31-121.285c1-.475 2.44-.227 3.22.554l10.13 10.122c.78.781.6 1.8-.4 2.275l-254.31 121.285c-.99.475-2.43.228-3.22-.553z" fill="#ead6c7" fill-rule="evenodd"/><rect fill="#fbf2eb" height="56.7817" rx="8" transform="matrix(.902607 -.430465 .707153 .707061 764.642 860.731)" width="1108.2"/><path clip-rule="evenodd" d="m1074.6 736.038c-.78-.781-.61-1.799.39-2.275l161.72-77.128c1-.476 2.44-.228 3.22.553l10.13 10.123c.78.781.6 1.799-.39 2.275l-161.73 77.128c-.99.476-2.44.228-3.22-.553z" fill="#ead6c7" fill-rule="evenodd"/></g></svg>