<svg fill="none" height="30" viewBox="0 0 35 30" width="35" xmlns="http://www.w3.org/2000/svg"><path d="m17.5362.0680892c-.2156 0-.4312.0272355-.6198.1089418l-16.640186 7.748529c-.3503201.16341-.3503201.40853 0 .57194l16.626686 7.7485c.1887.0817.3908.109.6063.109.2022 0 .4177-.0409.6064-.1226l16.6267-7.76213c.3503-.16341.3368-.42215 0-.58557l-16.6402-7.76214c-.2021-.0817064-.4042-.12256-.6198-.12256zm0 2.8325008 11.4393 5.32456-11.4528 5.32455-11.45274-5.33817 11.43924-5.33818zm-15.05028 10.02271-2.22318 1.1166c-.3503199.1771-.3503199.4494 0 .6265l16.62676 8.4021c.1886.0817.3907.1226.6063.1226.2021 0 .4177-.0545.6063-.1362l16.6267-8.4158c.3503-.177.3369-.463 0-.64l-2.2232-1.1303-14.4304 7.2719c-.2022.0817-.4043.1226-.6198.1226-.2156 0-.4312-.0545-.6198-.1362l-14.43052-7.2855zm0 6.8089-2.22318 1.1166c-.3503199.1771-.3503199.4494 0 .6265l16.62676 8.4021c.1886.0817.3907.1226.6063.1226.2021 0 .4177-.0545.6063-.1362l16.6267-8.4158c.3503-.177.3369-.463 0-.64l-2.2232-1.1303-14.4304 7.2719c-.2022.0817-.4043.1226-.6198.1226-.2156 0-.4312-.0545-.6198-.1362l-14.43052-7.2855z" fill="#ff6501"/></svg>