<svg fill="none" height="31" viewBox="0 0 28 31" width="28" xmlns="http://www.w3.org/2000/svg"><path d="m14.0127.05792c-2.8636 0-4.79815 1.13265-6.52906 2.08511-1.73091.93959-3.30909 1.76334-6.21091 1.76334h-1.27273v1.28711c0 9.92362 3.30909 16.39772 6.68182 20.31052 3.35998 3.9 6.84088 5.3415 6.84088 5.3415l.4773.1545.4773-.1673s3.4745-1.4158 6.8409-5.3093c3.36-3.9129 6.6818-10.387 6.6818-20.3621v-1.2871h-1.2727c-2.8891 0-4.48-.82375-6.2046-1.77621-1.7309-.95246-3.6591-2.09799-6.5227-2.09799zm0 2.57422c2.2273 0 3.5.78513 5.2818 1.76977 1.5019.82375 3.5 1.62176 6.0837 1.87918-.2546 8.70081-3.0927 14.23541-5.9691 17.56901-2.6091 3.0118-4.7982 4.0158-5.4091 4.299-.6236-.2832-2.8127-1.3129-5.40909-4.3505-2.87636-3.3465-5.72727-8.881-5.96909-17.54326 2.58363-.27029 4.56909-1.06829 6.08363-1.89204 1.78185-.99108 3.05455-1.76978 5.28185-1.76978z" fill="#ff6501"/></svg>