<svg fill="none" height="405" viewBox="0 0 661 405" width="661" xmlns="http://www.w3.org/2000/svg"><path d="m0 0h661v405h-661z" fill="#313c4e"/><rect fill="#5e697a" height="255" rx="8" width="235.63" x="27.3578" y="123.529"/><rect fill="#5e697a" height="195" rx="8" width="342.414" x="291.228" y="26.4707"/><rect fill="#abb3c0" height="95.2941" rx="8" width="194.152" x="48.5381" y="267.353"/><rect fill="#abb3c0" height="74.1177" rx="8" width="194.152" x="312.409" y="131.471"/><rect fill="#5e697a" height="69.7059" rx="8" width="235.63" x="27.3578" y="26.4707"/><path clip-rule="evenodd" d="m67.0708 205.176c0-2.209 1.7909-4 4-4h44.9502c2.21 0 4 1.791 4 4v.824c0 2.209-1.79 4-4 4h-44.9502c-2.2091 0-4-1.791-4-4z" fill="#313c4e" fill-rule="evenodd"/><path clip-rule="evenodd" d="m67.0708 222.824c0-2.209 1.7909-4 4-4h44.9502c2.21 0 4 1.791 4 4v.823c0 2.209-1.79 4-4 4h-44.9502c-2.2091 0-4-1.791-4-4z" fill="#313c4e" fill-rule="evenodd"/><path clip-rule="evenodd" d="m554.216 198.118c0-2.209 1.791-4 4-4h44.951c2.209 0 4 1.791 4 4v.823c0 2.209-1.791 4-4 4h-44.951c-2.209 0-4-1.791-4-4z" fill="#313c4e" fill-rule="evenodd"/><path clip-rule="evenodd" d="m554.216 178.706c0-2.209 1.791-4 4-4h44.951c2.209 0 4 1.791 4 4v.824c0 2.209-1.791 4-4 4h-44.951c-2.209 0-4-1.791-4-4z" fill="#313c4e" fill-rule="evenodd"/><path clip-rule="evenodd" d="m554.216 160.176c0-2.209 1.791-4 4-4h44.951c2.209 0 4 1.791 4 4v.824c0 2.209-1.791 4-4 4h-44.951c-2.209 0-4-1.791-4-4z" fill="#313c4e" fill-rule="evenodd"/><path clip-rule="evenodd" d="m554.216 141.647c0-2.209 1.791-4 4-4h44.951c2.209 0 4 1.791 4 4v.823c0 2.21-1.791 4-4 4h-44.951c-2.209 0-4-1.79-4-4z" fill="#313c4e" fill-rule="evenodd"/><rect fill="#313c4e" height="8.82353" rx="4.41177" width="8.8251" x="49.4205" y="201.176"/><rect fill="#313c4e" height="8.82353" rx="4.41177" width="8.8251" x="49.4205" y="218.824"/><rect fill="#313c4e" height="8.82353" rx="4.41177" width="8.82507" x="536.566" y="194.118"/><rect fill="#313c4e" height="8.82352" rx="4.41176" width="8.82507" x="536.566" y="174.706"/><rect fill="#313c4e" height="8.82353" rx="4.41177" width="8.82507" x="536.566" y="156.176"/><rect fill="#313c4e" height="8.82352" rx="4.41176" width="8.82507" x="536.566" y="137.647"/><g clip-rule="evenodd" fill-rule="evenodd"><path d="m49.4205 147.824c0-2.209 1.7909-4 4-4h127.9065c2.209 0 4 1.791 4 4v5.235c0 2.209-1.791 4-4 4h-127.9065c-2.2091 0-4-1.791-4-4z" fill="#313c4e"/><path d="m313.291 49.8823c0-2.2091 1.791-4 4-4h243.515c2.21 0 4 1.7909 4 4v5.2353c0 2.2092-1.79 4-4 4h-243.515c-2.209 0-4-1.7908-4-4z" fill="#313c4e"/><path d="m100.606 51.647c0-2.2092 1.791-4 4-4h127.907c2.209 0 4 1.7908 4 4v5.2353c0 2.2091-1.791 4-4 4h-127.907c-2.209 0-4-1.7909-4-4z" fill="#abb3c0"/><path d="m49.4205 167.882c0-1.104.8955-2 2-2h72.7785c1.104 0 2 .896 2 2v4.824c0 1.104-.896 2-2 2h-72.7785c-1.1045 0-2-.896-2-2z" fill="#abb3c0"/><path d="m313.291 69.9414c0-1.1046.895-2 2-2h178.68c1.104 0 2 .8954 2 2v4.8235c0 1.1046-.896 2-2 2h-178.68c-1.105 0-2-.8954-2-2z" fill="#abb3c0"/><path d="m313.291 87.5884c0-1.1046.895-2 2-2h83.369c1.104 0 2 .8954 2 2v4.8235c0 1.1046-.896 2-2 2h-83.369c-1.105 0-2-.8954-2-2z" fill="#abb3c0"/><path d="m100.606 68.1763c0-1.1046.896-2 2-2h72.779c1.104 0 2 .8954 2 2v4.8235c0 1.1046-.896 2-2 2h-72.779c-1.104 0-2-.8954-2-2z" fill="#abb3c0"/><path d="m49.4205 183.765c0-1.105.8955-2 2-2h99.2535c1.105 0 2 .895 2 2v4.823c0 1.105-.895 2-2 2h-99.2535c-1.1045 0-2-.895-2-2z" fill="#abb3c0"/><path d="m62.0107 354.706c-1.1045 0-2-.895-2-2v-17.176c0-1.105.8955-2 2-2h4.5193c1.1046 0 2 .895 2 2v17.176c0 1.105-.8954 2-2 2z" fill="#313c4e"/><path d="m116.534 354.706c-1.104 0-2-.895-2-2v-17.176c0-1.105.896-2 2-2h4.519c1.105 0 2 .895 2 2v17.176c0 1.105-.895 2-2 2z" fill="#313c4e"/><path d="m171.057 354.706c-1.104 0-2-.895-2-2v-50.706c0-1.104.896-2 2-2h4.52c1.104 0 2 .896 2 2v50.706c0 1.105-.896 2-2 2z" fill="#313c4e"/><path d="m75.6414 354.706c-1.1046 0-2-.895-2-2v-31.294c0-1.105.8954-2 2-2h4.5192c1.1046 0 2 .895 2 2v31.294c0 1.105-.8954 2-2 2z" fill="#313c4e"/><path d="m130.165 354.706c-1.104 0-2-.895-2-2v-38.353c0-1.104.896-2 2-2h4.519c1.105 0 2 .896 2 2v38.353c0 1.105-.895 2-2 2z" fill="#313c4e"/><path d="m184.688 354.706c-1.104 0-2-.895-2-2v-31.294c0-1.105.896-2 2-2h4.52c1.104 0 2 .895 2 2v31.294c0 1.105-.896 2-2 2z" fill="#313c4e"/><path d="m89.2727 354.706c-1.1046 0-2-.895-2-2v-17.176c0-1.105.8954-2 2-2h4.5193c1.1045 0 2 .895 2 2v17.176c0 1.105-.8955 2-2 2z" fill="#313c4e"/><path d="m143.796 354.706c-1.104 0-2-.895-2-2v-28.647c0-1.105.896-2 2-2h4.519c1.105 0 2 .895 2 2v28.647c0 1.105-.895 2-2 2z" fill="#313c4e"/><path d="m198.319 354.706c-1.105 0-2-.895-2-2v-46.294c0-1.105.895-2 2-2h4.519c1.105 0 2 .895 2 2v46.294c0 1.105-.895 2-2 2z" fill="#313c4e"/><path d="m211.95 354.706c-1.104 0-2-.895-2-2v-55.118c0-1.104.896-2 2-2h4.519c1.105 0 2 .896 2 2v55.118c0 1.105-.895 2-2 2z" fill="#313c4e"/><path d="m102.903 354.706c-1.104 0-2-.895-2-2v-48.059c0-1.104.896-2 2-2h4.519c1.105 0 2 .896 2 2v48.059c0 1.105-.895 2-2 2z" fill="#313c4e"/><path d="m157.426 354.706c-1.104 0-2-.895-2-2v-58.647c0-1.105.896-2 2-2h4.52c1.104 0 2 .895 2 2v58.647c0 1.105-.896 2-2 2z" fill="#313c4e"/><path d="m225.581 354.706c-1.105 0-2-.895-2-2v-71.882c0-1.105.895-2 2-2h4.519c1.105 0 2 .895 2 2v71.882c0 1.105-.895 2-2 2z" fill="#313c4e"/><path d="m325.881 197.647c-1.104 0-2-.895-2-2v-6.342c0-1.104.896-2 2-2h4.52c1.104 0 2 .896 2 2v6.342c0 1.105-.896 2-2 2z" fill="#313c4e"/><path d="m380.405 197.647c-1.105 0-2-.895-2-2v-6.342c0-1.104.895-2 2-2h4.519c1.105 0 2 .896 2 2v6.342c0 1.105-.895 2-2 2z" fill="#313c4e"/><path d="m434.928 197.647c-1.105 0-2-.895-2-2v-22.716c0-1.105.895-2 2-2h4.519c1.104 0 2 .895 2 2v22.716c0 1.105-.896 2-2 2z" fill="#313c4e"/><path d="m339.512 197.647c-1.105 0-2-.895-2-2v-13.236c0-1.105.895-2 2-2h4.519c1.105 0 2 .895 2 2v13.236c0 1.105-.895 2-2 2z" fill="#313c4e"/><path d="m394.036 197.647c-1.105 0-2-.895-2-2v-16.684c0-1.104.895-2 2-2h4.519c1.104 0 2 .896 2 2v16.684c0 1.105-.896 2-2 2z" fill="#313c4e"/><path d="m448.559 197.647c-1.105 0-2-.895-2-2v-13.236c0-1.105.895-2 2-2h4.519c1.105 0 2 .895 2 2v13.236c0 1.105-.895 2-2 2z" fill="#313c4e"/><path d="m353.143 197.647c-1.105 0-2-.895-2-2v-6.342c0-1.104.895-2 2-2h4.519c1.105 0 2 .896 2 2v6.342c0 1.105-.895 2-2 2z" fill="#313c4e"/><path d="m407.667 197.647c-1.105 0-2-.895-2-2v-11.943c0-1.105.895-2 2-2h4.519c1.105 0 2 .895 2 2v11.943c0 1.105-.895 2-2 2z" fill="#313c4e"/><path d="m462.189 197.647c-1.104 0-2-.895-2-2v-20.562c0-1.104.896-2 2-2h4.52c1.104 0 2 .896 2 2v20.562c0 1.105-.896 2-2 2z" fill="#313c4e"/><path d="m475.82 197.647c-1.104 0-2-.895-2-2v-24.871c0-1.105.896-2 2-2h4.52c1.104 0 2 .895 2 2v24.871c0 1.105-.896 2-2 2z" fill="#313c4e"/><path d="m366.774 197.647c-1.105 0-2-.895-2-2v-21.424c0-1.104.895-2 2-2h4.519c1.104 0 2 .896 2 2v21.424c0 1.105-.896 2-2 2z" fill="#313c4e"/><path d="m421.297 197.647c-1.105 0-2-.895-2-2v-26.595c0-1.104.895-2 2-2h4.519c1.104 0 2 .896 2 2v26.595c0 1.105-.896 2-2 2z" fill="#313c4e"/><path d="m489.451 197.647c-1.105 0-2-.895-2-2v-33.058c0-1.105.895-2 2-2h4.519c1.105 0 2 .895 2 2v33.058c0 1.105-.895 2-2 2z" fill="#313c4e"/></g><ellipse cx="68.3946" cy="62.2059" fill="#313c4e" rx="18.0915" ry="18.0882"/><rect fill="#5e697a" height="27.353" rx="8" width="342.414" x="291.228" y="351.176"/><path clip-rule="evenodd" d="m329.176 362.882c0-1.104.896-2 2-2h48.951c1.104 0 2 .896 2 2v4.824c0 1.104-.896 2-2 2h-48.951c-1.104 0-2-.896-2-2z" fill="#313c4e" fill-rule="evenodd"/><path clip-rule="evenodd" d="m448.315 362.882c0-1.104.895-2 2-2h98.371c1.105 0 2 .896 2 2v4.824c0 1.104-.895 2-2 2h-98.371c-1.105 0-2-.896-2-2z" fill="#313c4e" fill-rule="evenodd"/><ellipse cx="307.996" cy="365.294" fill="#313c4e" rx="6.17757" ry="6.17648"/><rect fill="#5e697a" height="27.3529" rx="8" width="342.414" x="291.228" y="315.882"/><path clip-rule="evenodd" d="m329.176 327.588c0-1.104.896-2 2-2h26.006c1.104 0 2 .896 2 2v4.824c0 1.104-.896 2-2 2h-26.006c-1.104 0-2-.896-2-2z" fill="#313c4e" fill-rule="evenodd"/><path clip-rule="evenodd" d="m448.315 327.588c0-1.104.895-2 2-2h55.128c1.105 0 2 .896 2 2v4.824c0 1.104-.895 2-2 2h-55.128c-1.105 0-2-.896-2-2z" fill="#313c4e" fill-rule="evenodd"/><ellipse cx="307.996" cy="330" fill="#313c4e" rx="6.17757" ry="6.17648"/><rect fill="#5e697a" height="27.3529" rx="8" width="342.414" x="291.228" y="280.588"/><path clip-rule="evenodd" d="m329.176 292.294c0-1.104.896-2 2-2h37.478c1.105 0 2 .896 2 2v4.824c0 1.105-.895 2-2 2h-37.478c-1.104 0-2-.895-2-2z" fill="#313c4e" fill-rule="evenodd"/><path clip-rule="evenodd" d="m448.315 292.294c0-1.104.895-2 2-2h133.672c1.104 0 2 .896 2 2v4.824c0 1.105-.896 2-2 2h-133.672c-1.105 0-2-.895-2-2z" fill="#313c4e" fill-rule="evenodd"/><ellipse cx="307.996" cy="294.706" fill="#313c4e" rx="6.17757" ry="6.17647"/><rect fill="#5e697a" height="27.353" rx="8" width="342.414" x="291.228" y="245.294"/><path clip-rule="evenodd" d="m329.176 257c0-1.105.896-2 2-2h56.011c1.105 0 2 .895 2 2v4.824c0 1.104-.895 2-2 2h-56.011c-1.104 0-2-.896-2-2z" fill="#313c4e" fill-rule="evenodd"/><path clip-rule="evenodd" d="m448.315 257c0-1.105.895-2 2-2h84.251c1.105 0 2 .895 2 2v4.824c0 1.104-.895 2-2 2h-84.251c-1.105 0-2-.896-2-2z" fill="#313c4e" fill-rule="evenodd"/><ellipse cx="307.996" cy="259.412" fill="#313c4e" rx="6.17757" ry="6.17647"/><path d="m68.8358 61.7651h-.0003c2.0994 0 3.8016-1.7779 3.8016-3.9705 0-2.193-1.7022-3.9705-3.8016-3.9709-2.0997-.0003-3.8016 1.7775-3.8019 3.9702v-.0004c-.0004 2.1926 1.7019 3.9705 3.8012 3.9705zm0 1.1344c-2.3563 0-7.06 1.5202-7.06 4.5377v2.2689h14.1201v-2.2689c0-3.0175-4.7038-4.5377-7.0601-4.5377z" fill="#abb3c0"/></svg>